M48
; DRILL file {KiCad 8.0.3} date 2025-04-01T21:14:12+0300
; FORMAT={-:-/ absolute / inch / decimal}
; #@! TF.CreationDate,2025-04-01T21:14:12+03:00
; #@! TF.GenerationSoftware,Kicad,Pcbnew,8.0.3
; #@! TF.FileFunction,Plated,1,2,PTH
FMAT,2
INCH
; #@! TA.AperFunction,Plated,PTH,ViaDrill
T1C0.0118
; #@! TA.AperFunction,Plated,PTH,ComponentDrill
T2C0.0394
; #@! TA.AperFunction,Plated,PTH,ComponentDrill
T3C0.0570
%
G90
G05
T1
X3.7362Y-3.8819
X3.7362Y-3.9488
X3.7362Y-4.0118
X3.7362Y-4.0787
X3.7362Y-4.1457
X3.7362Y-4.2126
X3.7362Y-4.2717
X3.7402Y-5.0827
X3.7402Y-5.1496
X3.7402Y-5.2126
X3.7402Y-5.2795
X3.7402Y-5.3465
X3.7402Y-5.4134
X3.7402Y-5.4724
X3.7441Y-2.6732
X3.7441Y-2.7402
X3.7441Y-2.8031
X3.7441Y-2.8701
X3.7441Y-2.937
X3.7441Y-3.0039
X3.7441Y-3.063
X3.7913Y-3.5906
X3.7953Y-4.7913
X3.7992Y-2.3819
X3.8031Y-3.8819
X3.8031Y-3.9488
X3.8031Y-4.0118
X3.8031Y-4.0787
X3.8031Y-4.1457
X3.8031Y-4.2126
X3.8031Y-4.2717
X3.8071Y-5.0827
X3.8071Y-5.1496
X3.8071Y-5.2126
X3.8071Y-5.2795
X3.8071Y-5.3465
X3.8071Y-5.4134
X3.8071Y-5.4724
X3.811Y-2.6732
X3.811Y-2.7402
X3.811Y-2.8031
X3.811Y-2.8701
X3.811Y-2.937
X3.811Y-3.0039
X3.811Y-3.063
X3.8465Y-3.6575
X3.8504Y-4.8583
X3.8543Y-2.4488
X3.8819Y-3.7283
X3.8819Y-3.8228
X3.8819Y-3.8819
X3.8819Y-3.9488
X3.8819Y-4.0118
X3.8819Y-4.0787
X3.8819Y-4.1457
X3.8819Y-4.2126
X3.8819Y-4.2717
X3.8858Y-4.9291
X3.8858Y-5.0236
X3.8858Y-5.0827
X3.8858Y-5.1496
X3.8858Y-5.2126
X3.8858Y-5.2795
X3.8858Y-5.3465
X3.8858Y-5.4134
X3.8858Y-5.4724
X3.8898Y-2.5197
X3.8898Y-2.6142
X3.8898Y-2.6732
X3.8898Y-2.7402
X3.8898Y-2.8031
X3.8898Y-2.8701
X3.8898Y-2.937
X3.8898Y-3.0039
X3.8898Y-3.063
X3.9488Y-3.8819
X3.9488Y-3.9488
X3.9488Y-4.0118
X3.9488Y-4.0787
X3.9488Y-4.1457
X3.9488Y-4.2126
X3.9488Y-4.2717
X3.9528Y-5.0827
X3.9528Y-5.1496
X3.9528Y-5.2126
X3.9528Y-5.2795
X3.9528Y-5.3465
X3.9528Y-5.4134
X3.9528Y-5.4724
X3.9567Y-2.6732
X3.9567Y-2.7402
X3.9567Y-2.8031
X3.9567Y-2.8701
X3.9567Y-2.937
X3.9567Y-3.0039
X3.9567Y-3.063
X3.9764Y-3.5709
X3.9764Y-3.6299
X3.9803Y-4.7717
X3.9803Y-4.8307
X3.9843Y-2.3622
X3.9843Y-2.4213
X4.0433Y-3.5709
X4.0433Y-3.6299
X4.0472Y-4.7717
X4.0472Y-4.8307
X4.0512Y-2.3622
X4.0512Y-2.4213
X4.063Y-3.8819
X4.063Y-3.9488
X4.063Y-4.0118
X4.063Y-4.0787
X4.063Y-4.1457
X4.063Y-4.2126
X4.063Y-4.2717
X4.0669Y-5.0827
X4.0669Y-5.1496
X4.0669Y-5.2126
X4.0669Y-5.2795
X4.0669Y-5.3465
X4.0669Y-5.4134
X4.0669Y-5.4724
X4.0709Y-2.6732
X4.0709Y-2.7402
X4.0709Y-2.8031
X4.0709Y-2.8701
X4.0709Y-2.937
X4.0709Y-3.0039
X4.0709Y-3.063
X4.1142Y-3.6969
X4.1142Y-3.8071
X4.1181Y-4.8976
X4.1181Y-5.0079
X4.122Y-2.4882
X4.122Y-2.5984
X4.122Y-3.5709
X4.122Y-3.6299
X4.126Y-4.7717
X4.126Y-4.8307
X4.1299Y-2.3622
X4.1299Y-2.4213
X4.1299Y-3.8819
X4.1299Y-3.9488
X4.1299Y-4.0118
X4.1299Y-4.0787
X4.1299Y-4.1457
X4.1299Y-4.2126
X4.1299Y-4.2717
X4.1339Y-5.0827
X4.1339Y-5.1496
X4.1339Y-5.2126
X4.1339Y-5.2795
X4.1339Y-5.3465
X4.1339Y-5.4134
X4.1339Y-5.4724
X4.1378Y-2.6732
X4.1378Y-2.7402
X4.1378Y-2.8031
X4.1378Y-2.8701
X4.1378Y-2.937
X4.1378Y-3.0039
X4.1378Y-3.063
X4.1732Y-3.6969
X4.1732Y-3.8071
X4.1772Y-4.8976
X4.1772Y-5.0079
X4.1811Y-2.4882
X4.1811Y-2.5984
X4.189Y-3.5709
X4.189Y-3.6299
X4.1929Y-4.7717
X4.1929Y-4.8307
X4.1969Y-2.3622
X4.1969Y-2.4213
X4.2087Y-3.8819
X4.2087Y-3.9488
X4.2087Y-4.0118
X4.2087Y-4.0787
X4.2087Y-4.1457
X4.2087Y-4.2126
X4.2087Y-4.2717
X4.2126Y-5.0827
X4.2126Y-5.1496
X4.2126Y-5.2126
X4.2126Y-5.2795
X4.2126Y-5.3465
X4.2126Y-5.4134
X4.2126Y-5.4724
X4.2165Y-2.6732
X4.2165Y-2.7402
X4.2165Y-2.8031
X4.2165Y-2.8701
X4.2165Y-2.937
X4.2165Y-3.0039
X4.2165Y-3.063
X4.2559Y-3.5709
X4.2559Y-3.6299
X4.2598Y-4.7717
X4.2598Y-4.8307
X4.2638Y-2.3622
X4.2638Y-2.4213
X4.2756Y-3.8819
X4.2756Y-3.9488
X4.2756Y-4.0118
X4.2756Y-4.0787
X4.2756Y-4.1457
X4.2756Y-4.2126
X4.2756Y-4.2717
X4.2795Y-5.0827
X4.2795Y-5.1496
X4.2795Y-5.2126
X4.2795Y-5.2795
X4.2795Y-5.3465
X4.2795Y-5.4134
X4.2795Y-5.4724
X4.2835Y-2.6732
X4.2835Y-2.7402
X4.2835Y-2.8031
X4.2835Y-2.8701
X4.2835Y-2.937
X4.2835Y-3.0039
X4.2835Y-3.063
X4.3228Y-3.5709
X4.3228Y-3.6299
X4.3268Y-4.7717
X4.3268Y-4.8307
X4.3307Y-2.3622
X4.3307Y-2.4213
X4.3307Y-3.8819
X4.3307Y-3.9488
X4.3307Y-4.0118
X4.3307Y-4.0787
X4.3307Y-4.1457
X4.3307Y-4.2126
X4.3307Y-4.2717
X4.3346Y-3.8189
X4.3346Y-5.0827
X4.3346Y-5.1496
X4.3346Y-5.2126
X4.3346Y-5.2795
X4.3346Y-5.3465
X4.3346Y-5.4134
X4.3346Y-5.4724
X4.3386Y-2.6732
X4.3386Y-2.7402
X4.3386Y-2.8031
X4.3386Y-2.8701
X4.3386Y-2.937
X4.3386Y-3.0039
X4.3386Y-3.063
X4.3386Y-5.0197
X4.3425Y-2.6102
X4.3937Y-3.8189
X4.3976Y-3.8819
X4.3976Y-3.9488
X4.3976Y-4.0118
X4.3976Y-4.0787
X4.3976Y-4.1457
X4.3976Y-4.2126
X4.3976Y-4.2717
X4.3976Y-5.0197
X4.4016Y-2.6102
X4.4016Y-3.5709
X4.4016Y-3.6299
X4.4016Y-3.7047
X4.4016Y-3.7638
X4.4016Y-5.0827
X4.4016Y-5.1496
X4.4016Y-5.2126
X4.4016Y-5.2795
X4.4016Y-5.3465
X4.4016Y-5.4134
X4.4016Y-5.4724
X4.4055Y-2.6732
X4.4055Y-2.7402
X4.4055Y-2.8031
X4.4055Y-2.8701
X4.4055Y-2.937
X4.4055Y-3.0039
X4.4055Y-3.063
X4.4055Y-4.7717
X4.4055Y-4.8307
X4.4055Y-4.9055
X4.4055Y-4.9646
X4.4094Y-2.3622
X4.4094Y-2.4213
X4.4094Y-2.4961
X4.4094Y-2.5551
X4.685Y-3.9055
X4.685Y-3.9724
X4.685Y-4.0354
X4.685Y-4.1024
X4.685Y-4.1693
X4.685Y-4.2362
X4.685Y-4.2953
X4.689Y-5.1063
X4.689Y-5.1732
X4.689Y-5.2362
X4.689Y-5.3031
X4.689Y-5.3701
X4.689Y-5.437
X4.689Y-5.4961
X4.6929Y-2.6969
X4.6929Y-2.7638
X4.6929Y-2.8268
X4.6929Y-2.8937
X4.6929Y-2.9606
X4.6929Y-3.0276
X4.6929Y-3.0866
X4.7402Y-3.6142
X4.7441Y-4.815
X4.748Y-2.4055
X4.752Y-3.9055
X4.752Y-3.9724
X4.752Y-4.0354
X4.752Y-4.1024
X4.752Y-4.1693
X4.752Y-4.2362
X4.752Y-4.2953
X4.7559Y-5.1063
X4.7559Y-5.1732
X4.7559Y-5.2362
X4.7559Y-5.3031
X4.7559Y-5.3701
X4.7559Y-5.437
X4.7559Y-5.4961
X4.7598Y-2.6969
X4.7598Y-2.7638
X4.7598Y-2.8268
X4.7598Y-2.8937
X4.7598Y-2.9606
X4.7598Y-3.0276
X4.7598Y-3.0866
X4.7953Y-3.6811
X4.7992Y-4.8819
X4.8031Y-2.4724
X4.8307Y-3.752
X4.8307Y-3.8465
X4.8307Y-3.9055
X4.8307Y-3.9724
X4.8307Y-4.0354
X4.8307Y-4.1024
X4.8307Y-4.1693
X4.8307Y-4.2362
X4.8307Y-4.2953
X4.8346Y-4.9528
X4.8346Y-5.0472
X4.8346Y-5.1063
X4.8346Y-5.1732
X4.8346Y-5.2362
X4.8346Y-5.3031
X4.8346Y-5.3701
X4.8346Y-5.437
X4.8346Y-5.4961
X4.8386Y-2.5433
X4.8386Y-2.6378
X4.8386Y-2.6969
X4.8386Y-2.7638
X4.8386Y-2.8268
X4.8386Y-2.8937
X4.8386Y-2.9606
X4.8386Y-3.0276
X4.8386Y-3.0866
X4.8976Y-3.9055
X4.8976Y-3.9724
X4.8976Y-4.0354
X4.8976Y-4.1024
X4.8976Y-4.1693
X4.8976Y-4.2362
X4.8976Y-4.2953
X4.9016Y-5.1063
X4.9016Y-5.1732
X4.9016Y-5.2362
X4.9016Y-5.3031
X4.9016Y-5.3701
X4.9016Y-5.437
X4.9016Y-5.4961
X4.9055Y-2.6969
X4.9055Y-2.7638
X4.9055Y-2.8268
X4.9055Y-2.8937
X4.9055Y-2.9606
X4.9055Y-3.0276
X4.9055Y-3.0866
X4.9252Y-3.5945
X4.9252Y-3.6535
X4.9291Y-4.7953
X4.9291Y-4.8543
X4.9331Y-2.3858
X4.9331Y-2.4449
X4.9921Y-3.5945
X4.9921Y-3.6535
X4.9961Y-4.7953
X4.9961Y-4.8543
X5.0Y-2.3858
X5.0Y-2.4449
X5.0118Y-3.9055
X5.0118Y-3.9724
X5.0118Y-4.0354
X5.0118Y-4.1024
X5.0118Y-4.1693
X5.0118Y-4.2362
X5.0118Y-4.2953
X5.0157Y-5.1063
X5.0157Y-5.1732
X5.0157Y-5.2362
X5.0157Y-5.3031
X5.0157Y-5.3701
X5.0157Y-5.437
X5.0157Y-5.4961
X5.0197Y-2.6969
X5.0197Y-2.7638
X5.0197Y-2.8268
X5.0197Y-2.8937
X5.0197Y-2.9606
X5.0197Y-3.0276
X5.0197Y-3.0866
X5.063Y-3.7205
X5.063Y-3.8307
X5.0669Y-4.9213
X5.0669Y-5.0315
X5.0709Y-2.5118
X5.0709Y-2.622
X5.0709Y-3.5945
X5.0709Y-3.6535
X5.0748Y-4.7953
X5.0748Y-4.8543
X5.0787Y-2.3858
X5.0787Y-2.4449
X5.0787Y-3.9055
X5.0787Y-3.9724
X5.0787Y-4.0354
X5.0787Y-4.1024
X5.0787Y-4.1693
X5.0787Y-4.2362
X5.0787Y-4.2953
X5.0827Y-5.1063
X5.0827Y-5.1732
X5.0827Y-5.2362
X5.0827Y-5.3031
X5.0827Y-5.3701
X5.0827Y-5.437
X5.0827Y-5.4961
X5.0866Y-2.6969
X5.0866Y-2.7638
X5.0866Y-2.8268
X5.0866Y-2.8937
X5.0866Y-2.9606
X5.0866Y-3.0276
X5.0866Y-3.0866
X5.122Y-3.7205
X5.122Y-3.8307
X5.126Y-4.9213
X5.126Y-5.0315
X5.1299Y-2.5118
X5.1299Y-2.622
X5.1378Y-3.5945
X5.1378Y-3.6535
X5.1417Y-4.7953
X5.1417Y-4.8543
X5.1457Y-2.3858
X5.1457Y-2.4449
X5.1575Y-3.9055
X5.1575Y-3.9724
X5.1575Y-4.0354
X5.1575Y-4.1024
X5.1575Y-4.1693
X5.1575Y-4.2362
X5.1575Y-4.2953
X5.1614Y-5.1063
X5.1614Y-5.1732
X5.1614Y-5.2362
X5.1614Y-5.3031
X5.1614Y-5.3701
X5.1614Y-5.437
X5.1614Y-5.4961
X5.1654Y-2.6969
X5.1654Y-2.7638
X5.1654Y-2.8268
X5.1654Y-2.8937
X5.1654Y-2.9606
X5.1654Y-3.0276
X5.1654Y-3.0866
X5.2047Y-3.5945
X5.2047Y-3.6535
X5.2087Y-4.7953
X5.2087Y-4.8543
X5.2126Y-2.3858
X5.2126Y-2.4449
X5.2244Y-3.9055
X5.2244Y-3.9724
X5.2244Y-4.0354
X5.2244Y-4.1024
X5.2244Y-4.1693
X5.2244Y-4.2362
X5.2244Y-4.2953
X5.2283Y-5.1063
X5.2283Y-5.1732
X5.2283Y-5.2362
X5.2283Y-5.3031
X5.2283Y-5.3701
X5.2283Y-5.437
X5.2283Y-5.4961
X5.2323Y-2.6969
X5.2323Y-2.7638
X5.2323Y-2.8268
X5.2323Y-2.8937
X5.2323Y-2.9606
X5.2323Y-3.0276
X5.2323Y-3.0866
X5.2717Y-3.5945
X5.2717Y-3.6535
X5.2756Y-4.7953
X5.2756Y-4.8543
X5.2795Y-2.3858
X5.2795Y-2.4449
X5.2795Y-3.9055
X5.2795Y-3.9724
X5.2795Y-4.0354
X5.2795Y-4.1024
X5.2795Y-4.1693
X5.2795Y-4.2362
X5.2795Y-4.2953
X5.2835Y-3.8425
X5.2835Y-5.1063
X5.2835Y-5.1732
X5.2835Y-5.2362
X5.2835Y-5.3031
X5.2835Y-5.3701
X5.2835Y-5.437
X5.2835Y-5.4961
X5.2874Y-2.6969
X5.2874Y-2.7638
X5.2874Y-2.8268
X5.2874Y-2.8937
X5.2874Y-2.9606
X5.2874Y-3.0276
X5.2874Y-3.0866
X5.2874Y-5.0433
X5.2913Y-2.6339
X5.3425Y-3.8425
X5.3465Y-3.9055
X5.3465Y-3.9724
X5.3465Y-4.0354
X5.3465Y-4.1024
X5.3465Y-4.1693
X5.3465Y-4.2362
X5.3465Y-4.2953
X5.3465Y-5.0433
X5.3504Y-2.6339
X5.3504Y-3.5945
X5.3504Y-3.6535
X5.3504Y-3.7283
X5.3504Y-3.7874
X5.3504Y-5.1063
X5.3504Y-5.1732
X5.3504Y-5.2362
X5.3504Y-5.3031
X5.3504Y-5.3701
X5.3504Y-5.437
X5.3504Y-5.4961
X5.3543Y-2.6969
X5.3543Y-2.7638
X5.3543Y-2.8268
X5.3543Y-2.8937
X5.3543Y-2.9606
X5.3543Y-3.0276
X5.3543Y-3.0866
X5.3543Y-4.7953
X5.3543Y-4.8543
X5.3543Y-4.9291
X5.3543Y-4.9882
X5.3583Y-2.3858
X5.3583Y-2.4449
X5.3583Y-2.5197
X5.3583Y-2.5787
X5.6299Y-3.8976
X5.6299Y-3.9646
X5.6299Y-4.0276
X5.6299Y-4.0945
X5.6299Y-4.1614
X5.6299Y-4.2283
X5.6299Y-4.2874
X5.6339Y-5.0984
X5.6339Y-5.1654
X5.6339Y-5.2283
X5.6339Y-5.2953
X5.6339Y-5.3622
X5.6339Y-5.4291
X5.6339Y-5.4882
X5.6378Y-2.689
X5.6378Y-2.7559
X5.6378Y-2.8189
X5.6378Y-2.8858
X5.6378Y-2.9528
X5.6378Y-3.0197
X5.6378Y-3.0787
X5.685Y-3.6063
X5.689Y-4.8071
X5.6929Y-2.3976
X5.6969Y-3.8976
X5.6969Y-3.9646
X5.6969Y-4.0276
X5.6969Y-4.0945
X5.6969Y-4.1614
X5.6969Y-4.2283
X5.6969Y-4.2874
X5.7008Y-5.0984
X5.7008Y-5.1654
X5.7008Y-5.2283
X5.7008Y-5.2953
X5.7008Y-5.3622
X5.7008Y-5.4291
X5.7008Y-5.4882
X5.7047Y-2.689
X5.7047Y-2.7559
X5.7047Y-2.8189
X5.7047Y-2.8858
X5.7047Y-2.9528
X5.7047Y-3.0197
X5.7047Y-3.0787
X5.7402Y-3.6732
X5.7441Y-4.874
X5.748Y-2.4646
X5.7756Y-3.7441
X5.7756Y-3.8386
X5.7756Y-3.8976
X5.7756Y-3.9646
X5.7756Y-4.0276
X5.7756Y-4.0945
X5.7756Y-4.1614
X5.7756Y-4.2283
X5.7756Y-4.2874
X5.7795Y-4.9449
X5.7795Y-5.0394
X5.7795Y-5.0984
X5.7795Y-5.1654
X5.7795Y-5.2283
X5.7795Y-5.2953
X5.7795Y-5.3622
X5.7795Y-5.4291
X5.7795Y-5.4882
X5.7835Y-2.5354
X5.7835Y-2.6299
X5.7835Y-2.689
X5.7835Y-2.7559
X5.7835Y-2.8189
X5.7835Y-2.8858
X5.7835Y-2.9528
X5.7835Y-3.0197
X5.7835Y-3.0787
X5.8425Y-3.8976
X5.8425Y-3.9646
X5.8425Y-4.0276
X5.8425Y-4.0945
X5.8425Y-4.1614
X5.8425Y-4.2283
X5.8425Y-4.2874
X5.8465Y-5.0984
X5.8465Y-5.1654
X5.8465Y-5.2283
X5.8465Y-5.2953
X5.8465Y-5.3622
X5.8465Y-5.4291
X5.8465Y-5.4882
X5.8504Y-2.689
X5.8504Y-2.7559
X5.8504Y-2.8189
X5.8504Y-2.8858
X5.8504Y-2.9528
X5.8504Y-3.0197
X5.8504Y-3.0787
X5.8701Y-3.5866
X5.8701Y-3.6457
X5.874Y-4.7874
X5.874Y-4.8465
X5.878Y-2.378
X5.878Y-2.437
X5.937Y-3.5866
X5.937Y-3.6457
X5.9409Y-4.7874
X5.9409Y-4.8465
X5.9449Y-2.378
X5.9449Y-2.437
X5.9567Y-3.8976
X5.9567Y-3.9646
X5.9567Y-4.0276
X5.9567Y-4.0945
X5.9567Y-4.1614
X5.9567Y-4.2283
X5.9567Y-4.2874
X5.9606Y-5.0984
X5.9606Y-5.1654
X5.9606Y-5.2283
X5.9606Y-5.2953
X5.9606Y-5.3622
X5.9606Y-5.4291
X5.9606Y-5.4882
X5.9646Y-2.689
X5.9646Y-2.7559
X5.9646Y-2.8189
X5.9646Y-2.8858
X5.9646Y-2.9528
X5.9646Y-3.0197
X5.9646Y-3.0787
X6.0079Y-3.7126
X6.0079Y-3.8228
X6.0118Y-4.9134
X6.0118Y-5.0236
X6.0157Y-2.5039
X6.0157Y-2.6142
X6.0157Y-3.5866
X6.0157Y-3.6457
X6.0197Y-4.7874
X6.0197Y-4.8465
X6.0236Y-2.378
X6.0236Y-2.437
X6.0236Y-3.8976
X6.0236Y-3.9646
X6.0236Y-4.0276
X6.0236Y-4.0945
X6.0236Y-4.1614
X6.0236Y-4.2283
X6.0236Y-4.2874
X6.0276Y-5.0984
X6.0276Y-5.1654
X6.0276Y-5.2283
X6.0276Y-5.2953
X6.0276Y-5.3622
X6.0276Y-5.4291
X6.0276Y-5.4882
X6.0315Y-2.689
X6.0315Y-2.7559
X6.0315Y-2.8189
X6.0315Y-2.8858
X6.0315Y-2.9528
X6.0315Y-3.0197
X6.0315Y-3.0787
X6.0669Y-3.7126
X6.0669Y-3.8228
X6.0709Y-4.9134
X6.0709Y-5.0236
X6.0748Y-2.5039
X6.0748Y-2.6142
X6.0827Y-3.5866
X6.0827Y-3.6457
X6.0866Y-4.7874
X6.0866Y-4.8465
X6.0906Y-2.378
X6.0906Y-2.437
X6.1024Y-3.8976
X6.1024Y-3.9646
X6.1024Y-4.0276
X6.1024Y-4.0945
X6.1024Y-4.1614
X6.1024Y-4.2283
X6.1024Y-4.2874
X6.1063Y-5.0984
X6.1063Y-5.1654
X6.1063Y-5.2283
X6.1063Y-5.2953
X6.1063Y-5.3622
X6.1063Y-5.4291
X6.1063Y-5.4882
X6.1102Y-2.689
X6.1102Y-2.7559
X6.1102Y-2.8189
X6.1102Y-2.8858
X6.1102Y-2.9528
X6.1102Y-3.0197
X6.1102Y-3.0787
X6.1496Y-3.5866
X6.1496Y-3.6457
X6.1535Y-4.7874
X6.1535Y-4.8465
X6.1575Y-2.378
X6.1575Y-2.437
X6.1693Y-3.8976
X6.1693Y-3.9646
X6.1693Y-4.0276
X6.1693Y-4.0945
X6.1693Y-4.1614
X6.1693Y-4.2283
X6.1693Y-4.2874
X6.1732Y-5.0984
X6.1732Y-5.1654
X6.1732Y-5.2283
X6.1732Y-5.2953
X6.1732Y-5.3622
X6.1732Y-5.4291
X6.1732Y-5.4882
X6.1772Y-2.689
X6.1772Y-2.7559
X6.1772Y-2.8189
X6.1772Y-2.8858
X6.1772Y-2.9528
X6.1772Y-3.0197
X6.1772Y-3.0787
X6.2165Y-3.5866
X6.2165Y-3.6457
X6.2205Y-4.7874
X6.2205Y-4.8465
X6.2244Y-2.378
X6.2244Y-2.437
X6.2244Y-3.8976
X6.2244Y-3.9646
X6.2244Y-4.0276
X6.2244Y-4.0945
X6.2244Y-4.1614
X6.2244Y-4.2283
X6.2244Y-4.2874
X6.2283Y-3.8346
X6.2283Y-5.0984
X6.2283Y-5.1654
X6.2283Y-5.2283
X6.2283Y-5.2953
X6.2283Y-5.3622
X6.2283Y-5.4291
X6.2283Y-5.4882
X6.2323Y-2.689
X6.2323Y-2.7559
X6.2323Y-2.8189
X6.2323Y-2.8858
X6.2323Y-2.9528
X6.2323Y-3.0197
X6.2323Y-3.0787
X6.2323Y-5.0354
X6.2362Y-2.626
X6.2874Y-3.8346
X6.2913Y-3.8976
X6.2913Y-3.9646
X6.2913Y-4.0276
X6.2913Y-4.0945
X6.2913Y-4.1614
X6.2913Y-4.2283
X6.2913Y-4.2874
X6.2913Y-5.0354
X6.2953Y-2.626
X6.2953Y-3.5866
X6.2953Y-3.6457
X6.2953Y-3.7205
X6.2953Y-3.7795
X6.2953Y-5.0984
X6.2953Y-5.1654
X6.2953Y-5.2283
X6.2953Y-5.2953
X6.2953Y-5.3622
X6.2953Y-5.4291
X6.2953Y-5.4882
X6.2992Y-2.689
X6.2992Y-2.7559
X6.2992Y-2.8189
X6.2992Y-2.8858
X6.2992Y-2.9528
X6.2992Y-3.0197
X6.2992Y-3.0787
X6.2992Y-4.7874
X6.2992Y-4.8465
X6.2992Y-4.9213
X6.2992Y-4.9803
X6.3031Y-2.378
X6.3031Y-2.437
X6.3031Y-2.5118
X6.3031Y-2.5709
X6.5827Y-3.9016
X6.5827Y-3.9685
X6.5827Y-4.0315
X6.5827Y-4.0984
X6.5827Y-4.1654
X6.5827Y-4.2323
X6.5827Y-4.2913
X6.5866Y-5.1024
X6.5866Y-5.1693
X6.5866Y-5.2323
X6.5866Y-5.2992
X6.5866Y-5.3661
X6.5866Y-5.4331
X6.5866Y-5.4921
X6.5906Y-2.6929
X6.5906Y-2.7598
X6.5906Y-2.8228
X6.5906Y-2.8898
X6.5906Y-2.9567
X6.5906Y-3.0236
X6.5906Y-3.0827
X6.6378Y-3.6102
X6.6417Y-4.811
X6.6457Y-2.4016
X6.6496Y-3.9016
X6.6496Y-3.9685
X6.6496Y-4.0315
X6.6496Y-4.0984
X6.6496Y-4.1654
X6.6496Y-4.2323
X6.6496Y-4.2913
X6.6535Y-5.1024
X6.6535Y-5.1693
X6.6535Y-5.2323
X6.6535Y-5.2992
X6.6535Y-5.3661
X6.6535Y-5.4331
X6.6535Y-5.4921
X6.6575Y-2.6929
X6.6575Y-2.7598
X6.6575Y-2.8228
X6.6575Y-2.8898
X6.6575Y-2.9567
X6.6575Y-3.0236
X6.6575Y-3.0827
X6.6929Y-3.6772
X6.6969Y-4.878
X6.7008Y-2.4685
X6.7283Y-3.748
X6.7283Y-3.8425
X6.7283Y-3.9016
X6.7283Y-3.9685
X6.7283Y-4.0315
X6.7283Y-4.0984
X6.7283Y-4.1654
X6.7283Y-4.2323
X6.7283Y-4.2913
X6.7323Y-4.9488
X6.7323Y-5.0433
X6.7323Y-5.1024
X6.7323Y-5.1693
X6.7323Y-5.2323
X6.7323Y-5.2992
X6.7323Y-5.3661
X6.7323Y-5.4331
X6.7323Y-5.4921
X6.7362Y-2.5394
X6.7362Y-2.6339
X6.7362Y-2.6929
X6.7362Y-2.7598
X6.7362Y-2.8228
X6.7362Y-2.8898
X6.7362Y-2.9567
X6.7362Y-3.0236
X6.7362Y-3.0827
X6.7953Y-3.9016
X6.7953Y-3.9685
X6.7953Y-4.0315
X6.7953Y-4.0984
X6.7953Y-4.1654
X6.7953Y-4.2323
X6.7953Y-4.2913
X6.7992Y-5.1024
X6.7992Y-5.1693
X6.7992Y-5.2323
X6.7992Y-5.2992
X6.7992Y-5.3661
X6.7992Y-5.4331
X6.7992Y-5.4921
X6.8031Y-2.6929
X6.8031Y-2.7598
X6.8031Y-2.8228
X6.8031Y-2.8898
X6.8031Y-2.9567
X6.8031Y-3.0236
X6.8031Y-3.0827
X6.8228Y-3.5906
X6.8228Y-3.6496
X6.8268Y-4.7913
X6.8268Y-4.8504
X6.8307Y-2.3819
X6.8307Y-2.4409
X6.8898Y-3.5906
X6.8898Y-3.6496
X6.8937Y-4.7913
X6.8937Y-4.8504
X6.8976Y-2.3819
X6.8976Y-2.4409
X6.9094Y-3.9016
X6.9094Y-3.9685
X6.9094Y-4.0315
X6.9094Y-4.0984
X6.9094Y-4.1654
X6.9094Y-4.2323
X6.9094Y-4.2913
X6.9134Y-5.1024
X6.9134Y-5.1693
X6.9134Y-5.2323
X6.9134Y-5.2992
X6.9134Y-5.3661
X6.9134Y-5.4331
X6.9134Y-5.4921
X6.9173Y-2.6929
X6.9173Y-2.7598
X6.9173Y-2.8228
X6.9173Y-2.8898
X6.9173Y-2.9567
X6.9173Y-3.0236
X6.9173Y-3.0827
X6.9606Y-3.7165
X6.9606Y-3.8268
X6.9646Y-4.9173
X6.9646Y-5.0276
X6.9685Y-2.5079
X6.9685Y-2.6181
X6.9685Y-3.5906
X6.9685Y-3.6496
X6.9724Y-4.7913
X6.9724Y-4.8504
X6.9764Y-2.3819
X6.9764Y-2.4409
X6.9764Y-3.9016
X6.9764Y-3.9685
X6.9764Y-4.0315
X6.9764Y-4.0984
X6.9764Y-4.1654
X6.9764Y-4.2323
X6.9764Y-4.2913
X6.9803Y-5.1024
X6.9803Y-5.1693
X6.9803Y-5.2323
X6.9803Y-5.2992
X6.9803Y-5.3661
X6.9803Y-5.4331
X6.9803Y-5.4921
X6.9843Y-2.6929
X6.9843Y-2.7598
X6.9843Y-2.8228
X6.9843Y-2.8898
X6.9843Y-2.9567
X6.9843Y-3.0236
X6.9843Y-3.0827
X7.0197Y-3.7165
X7.0197Y-3.8268
X7.0236Y-4.9173
X7.0236Y-5.0276
X7.0276Y-2.5079
X7.0276Y-2.6181
X7.0354Y-3.5906
X7.0354Y-3.6496
X7.0394Y-4.7913
X7.0394Y-4.8504
X7.0433Y-2.3819
X7.0433Y-2.4409
X7.0551Y-3.9016
X7.0551Y-3.9685
X7.0551Y-4.0315
X7.0551Y-4.0984
X7.0551Y-4.1654
X7.0551Y-4.2323
X7.0551Y-4.2913
X7.0591Y-5.1024
X7.0591Y-5.1693
X7.0591Y-5.2323
X7.0591Y-5.2992
X7.0591Y-5.3661
X7.0591Y-5.4331
X7.0591Y-5.4921
X7.063Y-2.6929
X7.063Y-2.7598
X7.063Y-2.8228
X7.063Y-2.8898
X7.063Y-2.9567
X7.063Y-3.0236
X7.063Y-3.0827
X7.1024Y-3.5906
X7.1024Y-3.6496
X7.1063Y-4.7913
X7.1063Y-4.8504
X7.1102Y-2.3819
X7.1102Y-2.4409
X7.122Y-3.9016
X7.122Y-3.9685
X7.122Y-4.0315
X7.122Y-4.0984
X7.122Y-4.1654
X7.122Y-4.2323
X7.122Y-4.2913
X7.126Y-5.1024
X7.126Y-5.1693
X7.126Y-5.2323
X7.126Y-5.2992
X7.126Y-5.3661
X7.126Y-5.4331
X7.126Y-5.4921
X7.1299Y-2.6929
X7.1299Y-2.7598
X7.1299Y-2.8228
X7.1299Y-2.8898
X7.1299Y-2.9567
X7.1299Y-3.0236
X7.1299Y-3.0827
X7.1693Y-3.5906
X7.1693Y-3.6496
X7.1732Y-4.7913
X7.1732Y-4.8504
X7.1772Y-2.3819
X7.1772Y-2.4409
X7.1772Y-3.9016
X7.1772Y-3.9685
X7.1772Y-4.0315
X7.1772Y-4.0984
X7.1772Y-4.1654
X7.1772Y-4.2323
X7.1772Y-4.2913
X7.1811Y-3.8386
X7.1811Y-5.1024
X7.1811Y-5.1693
X7.1811Y-5.2323
X7.1811Y-5.2992
X7.1811Y-5.3661
X7.1811Y-5.4331
X7.1811Y-5.4921
X7.185Y-2.6929
X7.185Y-2.7598
X7.185Y-2.8228
X7.185Y-2.8898
X7.185Y-2.9567
X7.185Y-3.0236
X7.185Y-3.0827
X7.185Y-5.0394
X7.189Y-2.6299
X7.2402Y-3.8386
X7.2441Y-3.9016
X7.2441Y-3.9685
X7.2441Y-4.0315
X7.2441Y-4.0984
X7.2441Y-4.1654
X7.2441Y-4.2323
X7.2441Y-4.2913
X7.2441Y-5.0394
X7.248Y-2.6299
X7.248Y-3.5906
X7.248Y-3.6496
X7.248Y-3.7244
X7.248Y-3.7835
X7.248Y-5.1024
X7.248Y-5.1693
X7.248Y-5.2323
X7.248Y-5.2992
X7.248Y-5.3661
X7.248Y-5.4331
X7.248Y-5.4921
X7.252Y-2.6929
X7.252Y-2.7598
X7.252Y-2.8228
X7.252Y-2.8898
X7.252Y-2.9567
X7.252Y-3.0236
X7.252Y-3.0827
X7.252Y-4.7913
X7.252Y-4.8504
X7.252Y-4.9252
X7.252Y-4.9843
X7.2559Y-2.3819
X7.2559Y-2.4409
X7.2559Y-2.5157
X7.2559Y-2.5748
T2
X3.7244Y-2.3012
X3.7244Y-3.5039
X3.7244Y-4.7047
X3.8228Y-2.3012
X3.8228Y-3.5039
X3.8228Y-4.7047
X4.6732Y-2.3012
X4.6732Y-3.5039
X4.6732Y-4.7047
X4.7717Y-2.3012
X4.7717Y-3.5039
X4.7717Y-4.7047
X5.622Y-2.3012
X5.622Y-3.5039
X5.622Y-4.7047
X5.7205Y-2.3012
X5.7205Y-3.5039
X5.7205Y-4.7047
X6.5709Y-2.3012
X6.5709Y-3.5039
X6.5709Y-4.7047
X6.6693Y-2.3012
X6.6693Y-3.5039
X6.6693Y-4.7047
T3
X3.7713Y-2.5532
X3.7713Y-3.1909
X3.7713Y-3.7559
X3.7713Y-4.3937
X3.7713Y-4.9567
X3.7713Y-5.5945
X4.0197Y-2.5531
X4.0197Y-3.1909
X4.0197Y-3.7559
X4.0197Y-4.3937
X4.0197Y-4.9567
X4.0197Y-5.5945
X4.2677Y-2.5531
X4.2677Y-3.1909
X4.2677Y-3.7559
X4.2677Y-4.3937
X4.2677Y-4.9567
X4.2677Y-5.5945
X4.7201Y-2.5532
X4.7201Y-3.1909
X4.7201Y-3.7559
X4.7201Y-4.3937
X4.7201Y-4.9567
X4.7201Y-5.5945
X4.9685Y-2.5531
X4.9685Y-3.1909
X4.9685Y-3.7559
X4.9685Y-4.3937
X4.9685Y-4.9567
X4.9685Y-5.5945
X5.2165Y-2.5531
X5.2165Y-3.1909
X5.2165Y-3.7559
X5.2165Y-4.3937
X5.2165Y-4.9567
X5.2165Y-5.5945
X5.6689Y-2.5532
X5.6689Y-3.1909
X5.6689Y-3.7559
X5.6689Y-4.3937
X5.6689Y-4.9567
X5.6689Y-5.5945
X5.9173Y-2.5531
X5.9173Y-3.1909
X5.9173Y-3.7559
X5.9173Y-4.3937
X5.9173Y-4.9567
X5.9173Y-5.5945
X6.1654Y-2.5531
X6.1654Y-3.1909
X6.1654Y-3.7559
X6.1654Y-4.3937
X6.1654Y-4.9567
X6.1654Y-5.5945
X6.6177Y-2.5532
X6.6177Y-3.1909
X6.6177Y-3.7559
X6.6177Y-4.3937
X6.6177Y-4.9567
X6.6177Y-5.5945
X6.8661Y-2.5531
X6.8661Y-3.1909
X6.8661Y-3.7559
X6.8661Y-4.3937
X6.8661Y-4.9567
X6.8661Y-5.5945
X7.1142Y-2.5531
X7.1142Y-3.1909
X7.1142Y-3.7559
X7.1142Y-4.3937
X7.1142Y-4.9567
X7.1142Y-5.5945
M30
