%TF.GenerationSoftware,KiCad,Pcbnew,8.0.3*%
%TF.CreationDate,2025-04-01T21:14:06+03:00*%
%TF.ProjectId,TMC-1,544d432d-312e-46b6-9963-61645f706362,rev?*%
%TF.SameCoordinates,Original*%
%TF.FileFunction,Profile,NP*%
%FSLAX46Y46*%
G04 Gerber Fmt 4.6, Leading zero omitted, Abs format (unit mm)*
G04 Created by KiCad (PCBNEW 8.0.3) date 2025-04-01 21:14:06*
%MOMM*%
%LPD*%
G01*
G04 APERTURE LIST*
%TA.AperFunction,Profile*%
%ADD10C,0.050000*%
%TD*%
G04 APERTURE END LIST*
D10*
X110100000Y-83350100D02*
X110100000Y-85400100D01*
X185400000Y-80350100D02*
G75*
G02*
X182400000Y-83350100I-3000000J0D01*
G01*
X182400000Y-115900100D02*
G75*
G02*
X185400000Y-118900100I0J-3000000D01*
G01*
X94000000Y-83350100D02*
X94000000Y-85400100D01*
X137200000Y-80350100D02*
X139200000Y-80350100D01*
X137200000Y-110900100D02*
G75*
G02*
X134200000Y-113900100I-3000000J0D01*
G01*
X115100000Y-118900100D02*
X113100000Y-118900100D01*
X161300000Y-141400100D02*
X163300000Y-141400100D01*
X163300000Y-88400100D02*
G75*
G02*
X166300000Y-85400100I3000000J0D01*
G01*
X91000000Y-110900100D02*
X91000000Y-88400100D01*
X163300000Y-110900100D02*
X161300000Y-110900100D01*
X182400000Y-144400100D02*
X166300000Y-144400100D01*
X115100000Y-88400100D02*
G75*
G02*
X118100000Y-85400100I3000000J0D01*
G01*
X134200000Y-83350100D02*
X134200000Y-85400100D01*
X166300000Y-144400100D02*
G75*
G02*
X163300000Y-141400100I0J3000000D01*
G01*
X113100000Y-141400100D02*
G75*
G02*
X110100000Y-144400100I-3000000J0D01*
G01*
X161300000Y-80350100D02*
X163300000Y-80350100D01*
X139200000Y-57850100D02*
G75*
G02*
X142200000Y-54850100I3000000J0D01*
G01*
X118100000Y-54850100D02*
X134200000Y-54850100D01*
X110100000Y-115900100D02*
X110100000Y-113900100D01*
X91000000Y-141400100D02*
X91000000Y-118900100D01*
X118100000Y-113900100D02*
G75*
G02*
X115100000Y-110900100I0J3000000D01*
G01*
X163300000Y-88400100D02*
X161300000Y-88400100D01*
X115100000Y-57850100D02*
X113100000Y-57850100D01*
X137200000Y-141400100D02*
G75*
G02*
X134200000Y-144400100I-3000000J0D01*
G01*
X142200000Y-113900100D02*
G75*
G02*
X139200000Y-110900100I0J3000000D01*
G01*
X166300000Y-83350100D02*
G75*
G02*
X163300000Y-80350100I0J3000000D01*
G01*
X110100000Y-144400100D02*
X94000000Y-144400100D01*
X139200000Y-118900100D02*
G75*
G02*
X142200000Y-115900100I3000000J0D01*
G01*
X91000000Y-88400100D02*
G75*
G02*
X94000000Y-85400100I3000000J0D01*
G01*
X142200000Y-115900100D02*
X142200000Y-113900100D01*
X185400000Y-88400100D02*
X185400000Y-110900100D01*
X161300000Y-141400100D02*
G75*
G02*
X158300000Y-144400100I-3000000J0D01*
G01*
X91000000Y-118900100D02*
G75*
G02*
X94000000Y-115900100I3000000J0D01*
G01*
X110100000Y-85400100D02*
G75*
G02*
X113100000Y-88400100I0J-3000000D01*
G01*
X94000000Y-54850100D02*
X110100000Y-54850100D01*
X113100000Y-88400100D02*
X115100000Y-88400100D01*
X161300000Y-57850100D02*
X163300000Y-57850100D01*
X137200000Y-80350100D02*
G75*
G02*
X134200000Y-83350100I-3000000J0D01*
G01*
X182400000Y-113900100D02*
X182400000Y-115900100D01*
X115100000Y-118900100D02*
G75*
G02*
X118100000Y-115900100I3000000J0D01*
G01*
X161300000Y-80350100D02*
G75*
G02*
X158300000Y-83350100I-3000000J0D01*
G01*
X142200000Y-83350100D02*
G75*
G02*
X139200000Y-80350100I0J3000000D01*
G01*
X118100000Y-113900100D02*
X118100000Y-115900100D01*
X118100000Y-85400100D02*
X118100000Y-83350100D01*
X182400000Y-54850100D02*
G75*
G02*
X185400000Y-57850100I0J-3000000D01*
G01*
X158300000Y-83350100D02*
X158300000Y-85400100D01*
X161300000Y-110900100D02*
G75*
G02*
X158300000Y-113900100I-3000000J0D01*
G01*
X142200000Y-144400100D02*
G75*
G02*
X139200000Y-141400100I0J3000000D01*
G01*
X161300000Y-118900100D02*
X163300000Y-118900100D01*
X134200000Y-144400100D02*
X118100000Y-144400100D01*
X158300000Y-144400100D02*
X142200000Y-144400100D01*
X94000000Y-113900100D02*
X94000000Y-115900100D01*
X137200000Y-118900100D02*
X139200000Y-118900100D01*
X182400000Y-85400100D02*
G75*
G02*
X185400000Y-88400100I0J-3000000D01*
G01*
X185400000Y-57850100D02*
X185400000Y-80350100D01*
X91000000Y-80350100D02*
X91000000Y-57850100D01*
X139200000Y-110900100D02*
X137200000Y-110900100D01*
X110100000Y-54850100D02*
G75*
G02*
X113100000Y-57850100I0J-3000000D01*
G01*
X163300000Y-118900100D02*
G75*
G02*
X166300000Y-115900100I3000000J0D01*
G01*
X139200000Y-88400100D02*
X137200000Y-88400100D01*
X115100000Y-57850100D02*
G75*
G02*
X118100000Y-54850100I3000000J0D01*
G01*
X118100000Y-83350100D02*
G75*
G02*
X115100000Y-80350100I0J3000000D01*
G01*
X158300000Y-113900100D02*
X158300000Y-115900100D01*
X158300000Y-54850100D02*
G75*
G02*
X161300000Y-57850100I0J-3000000D01*
G01*
X110100000Y-115900100D02*
G75*
G02*
X113100000Y-118900100I0J-3000000D01*
G01*
X158300000Y-85400100D02*
G75*
G02*
X161300000Y-88400100I0J-3000000D01*
G01*
X94000000Y-83350100D02*
G75*
G02*
X91000000Y-80350100I0J3000000D01*
G01*
X185400000Y-118900100D02*
X185400000Y-141400100D01*
X94000000Y-113900100D02*
G75*
G02*
X91000000Y-110900100I0J3000000D01*
G01*
X113100000Y-80350100D02*
G75*
G02*
X110100000Y-83350100I-3000000J0D01*
G01*
X113100000Y-110900100D02*
G75*
G02*
X110100000Y-113900100I-3000000J0D01*
G01*
X94000000Y-144400100D02*
G75*
G02*
X91000000Y-141400100I0J3000000D01*
G01*
X137200000Y-141400100D02*
X139200000Y-141400100D01*
X142200000Y-54850100D02*
X158300000Y-54850100D01*
X118100000Y-144400100D02*
G75*
G02*
X115100000Y-141400100I0J3000000D01*
G01*
X139200000Y-88400100D02*
G75*
G02*
X142200000Y-85400100I3000000J0D01*
G01*
X163300000Y-57850100D02*
G75*
G02*
X166300000Y-54850100I3000000J0D01*
G01*
X182400000Y-83350100D02*
X182400000Y-85400100D01*
X115100000Y-80350100D02*
X113100000Y-80350100D01*
X137200000Y-57850100D02*
X139200000Y-57850100D01*
X166300000Y-115900100D02*
X166300000Y-113900100D01*
X166300000Y-113900100D02*
G75*
G02*
X163300000Y-110900100I0J3000000D01*
G01*
X166300000Y-83350100D02*
X166300000Y-85400100D01*
X113100000Y-110900100D02*
X115100000Y-110900100D01*
X134200000Y-115900100D02*
G75*
G02*
X137200000Y-118900100I0J-3000000D01*
G01*
X134200000Y-85400100D02*
G75*
G02*
X137200000Y-88400100I0J-3000000D01*
G01*
X166300000Y-54850100D02*
X182400000Y-54850100D01*
X134200000Y-54850100D02*
G75*
G02*
X137200000Y-57850100I0J-3000000D01*
G01*
X134200000Y-113900100D02*
X134200000Y-115900100D01*
X142200000Y-83350100D02*
X142200000Y-85400100D01*
X158300000Y-115900100D02*
G75*
G02*
X161300000Y-118900100I0J-3000000D01*
G01*
X185400000Y-141400100D02*
G75*
G02*
X182400000Y-144400100I-3000000J0D01*
G01*
X91000000Y-57850100D02*
G75*
G02*
X94000000Y-54850100I3000000J0D01*
G01*
X113100000Y-141400100D02*
X115100000Y-141400100D01*
X185400000Y-110900100D02*
G75*
G02*
X182400000Y-113900100I-3000000J0D01*
G01*
M02*
